<svg width="24" height="30" viewBox="0 0 24 30" fill="none" xmlns="http://www.w3.org/2000/svg">
<path d="M1 0C1.553 0 2 0.448 2 1V5.378C3.772 3.75 5.982 2.599 8.343 2.117C15.552 0.648 21.73 5.578 22.828 12.155C23.572 16.607 21.873 20.921 18.653 23.692C18.231 24.055 17.601 24.004 17.243 23.588C16.882 23.17 16.929 22.538 17.348 22.178C20.003 19.89 21.492 16.291 20.856 12.485C19.943 7.02 14.832 2.839 8.743 4.078C6.663 4.501 4.721 5.536 3.19 7H8C8.553 7 9 7.448 9 8C9 8.553 8.553 9 8 9H1C0.448004 9 3.8147e-06 8.553 3.8147e-06 8V1C3.8147e-06 0.448 0.448004 0 1 0Z" fill="black"/>
<path d="M3.12695 21.1172V20.1699C3.56641 20.1504 3.87402 20.1211 4.0498 20.082C4.32975 20.0202 4.55762 19.8965 4.7334 19.7109C4.85384 19.584 4.94499 19.4147 5.00684 19.2031C5.04264 19.0762 5.06055 18.9818 5.06055 18.9199H6.21777V26H4.79199V21.1172H3.12695ZM9.65039 24.1055C9.70573 24.4082 9.81152 24.6426 9.96777 24.8086C10.124 24.9714 10.3519 25.0527 10.6514 25.0527C10.9964 25.0527 11.2585 24.9323 11.4375 24.6914C11.6198 24.4473 11.7109 24.1413 11.7109 23.7734C11.7109 23.4121 11.6263 23.1077 11.457 22.8604C11.2878 22.6097 11.0241 22.4844 10.666 22.4844C10.4967 22.4844 10.3503 22.5055 10.2266 22.5479C10.0085 22.626 9.84408 22.7708 9.7334 22.9824L8.4834 22.9238L8.98145 19.0127H12.8828V20.1943H9.9873L9.7334 21.7422C9.94824 21.6022 10.1159 21.5094 10.2363 21.4639C10.4382 21.389 10.6839 21.3516 10.9736 21.3516C11.5596 21.3516 12.0706 21.5485 12.5068 21.9424C12.943 22.3363 13.1611 22.9092 13.1611 23.6611C13.1611 24.3154 12.9512 24.8997 12.5312 25.4141C12.1113 25.9284 11.4831 26.1855 10.6465 26.1855C9.97266 26.1855 9.41927 26.0049 8.98633 25.6436C8.55339 25.2822 8.3125 24.7695 8.26367 24.1055H9.65039Z" fill="black"/>
</svg>
