<svg width="24" height="24" viewBox="0 0 24 24" fill="none" xmlns="http://www.w3.org/2000/svg">
<path d="M6 4V20L12.5 13.8462L19 20V4H6Z" fill="black"/>
<path d="M6 20H5.25C5.25 20.2996 5.42832 20.5705 5.70354 20.6889C5.97876 20.8074 6.29805 20.7506 6.51563 20.5446L6 20ZM6 4V3.25C5.58579 3.25 5.25 3.58579 5.25 4H6ZM19 4H19.75C19.75 3.58579 19.4142 3.25 19 3.25V4ZM19 20L18.4844 20.5446C18.7019 20.7506 19.0212 20.8074 19.2965 20.6889C19.5717 20.5705 19.75 20.2996 19.75 20H19ZM12.5 13.8462L13.0156 13.3015C12.7264 13.0277 12.2736 13.0277 11.9844 13.3015L12.5 13.8462ZM6.75 20V4H5.25V20H6.75ZM6 4.75H19V3.25H6V4.75ZM18.25 4V20H19.75V4H18.25ZM19.5156 19.4554L13.0156 13.3015L11.9844 14.3908L18.4844 20.5446L19.5156 19.4554ZM11.9844 13.3015L5.48437 19.4554L6.51563 20.5446L13.0156 14.3908L11.9844 13.3015Z" fill="black"/>
</svg>
