<svg width="24" height="30" viewBox="0 0 24 30" fill="none" xmlns="http://www.w3.org/2000/svg">
<path d="M23 0C22.447 0 22 0.448 22 1V5.378C20.228 3.75 18.018 2.599 15.657 2.117C8.448 0.648 2.27 5.578 1.172 12.155C0.427997 16.607 2.127 20.921 5.347 23.692C5.769 24.055 6.399 24.004 6.757 23.588C7.118 23.17 7.071 22.538 6.652 22.178C3.997 19.89 2.508 16.291 3.144 12.485C4.057 7.02 9.168 2.839 15.257 4.078C17.337 4.501 19.279 5.536 20.81 7H16C15.447 7 15 7.448 15 8C15 8.553 15.447 9 16 9H23C23.552 9 24 8.553 24 8V1C24 0.448 23.552 0 23 0Z" fill="black"/>
<path d="M10.127 21.1172V20.1699C10.5664 20.1504 10.874 20.1211 11.0498 20.082C11.3298 20.0202 11.5576 19.8965 11.7334 19.7109C11.8538 19.584 11.945 19.4147 12.0068 19.2031C12.0426 19.0762 12.0605 18.9818 12.0605 18.9199H13.2178V26H11.792V21.1172H10.127ZM16.6504 24.1055C16.7057 24.4082 16.8115 24.6426 16.9678 24.8086C17.124 24.9714 17.3519 25.0527 17.6514 25.0527C17.9964 25.0527 18.2585 24.9323 18.4375 24.6914C18.6198 24.4473 18.7109 24.1413 18.7109 23.7734C18.7109 23.4121 18.6263 23.1077 18.457 22.8604C18.2878 22.6097 18.0241 22.4844 17.666 22.4844C17.4967 22.4844 17.3503 22.5055 17.2266 22.5479C17.0085 22.626 16.8441 22.7708 16.7334 22.9824L15.4834 22.9238L15.9814 19.0127H19.8828V20.1943H16.9873L16.7334 21.7422C16.9482 21.6022 17.1159 21.5094 17.2363 21.4639C17.4382 21.389 17.6839 21.3516 17.9736 21.3516C18.5596 21.3516 19.0706 21.5485 19.5068 21.9424C19.943 22.3363 20.1611 22.9092 20.1611 23.6611C20.1611 24.3154 19.9512 24.8997 19.5312 25.4141C19.1113 25.9284 18.4831 26.1855 17.6465 26.1855C16.9727 26.1855 16.4193 26.0049 15.9863 25.6436C15.5534 25.2822 15.3125 24.7695 15.2637 24.1055H16.6504Z" fill="black"/>
</svg>
